<svg width="36" height="44" viewBox="0 0 36 44" fill="none" xmlns="http://www.w3.org/2000/svg">
<g clip-path="url(#clip0_872_902)">
<path d="M10.9755 44.0001C10.7455 43.9244 10.512 43.8601 10.2866 43.7717C9.17577 43.34 8.58278 42.3354 8.79431 41.1723C9.64276 36.4858 10.5421 31.8072 11.3466 27.1126C11.7431 24.8027 12.0448 22.4709 12.2563 20.1379C12.4089 18.4479 12.0552 18.0805 10.4299 17.5765C7.9713 16.8141 5.50341 16.0805 3.05863 15.2757C2.31769 15.0323 1.5779 14.681 0.947923 14.2275C-0.528188 13.1655 -0.212622 10.5811 1.43803 9.79692C1.93624 9.56041 2.44022 9.58567 2.95345 9.73951C6.61193 10.8405 10.3328 11.6534 14.1185 12.1758C17.1146 12.5891 20.0958 12.4628 23.0734 11.9909C26.4337 11.4594 29.7373 10.6844 33.0039 9.74755C34.0662 9.4433 34.91 9.75903 35.4776 10.7074C36.1862 11.8934 36.4439 13.5926 34.4812 14.5926C33.59 15.0461 32.6282 15.3698 31.6815 15.7062C29.6229 16.4387 27.5445 17.1195 25.4916 17.8658C23.6918 18.5202 23.4861 18.7889 23.6618 20.774C24.0432 25.069 24.9356 29.2872 25.7297 33.5191C26.2025 36.0357 26.6833 38.5501 27.1446 41.069C27.3931 42.4272 26.6926 43.503 25.3529 43.8796C25.2315 43.914 25.1124 43.9576 24.9922 43.9978H23.8675C22.5267 43.6385 21.9418 42.6523 21.6817 41.3985C21.5395 40.712 21.4274 40.0196 21.269 39.3377C20.5535 36.2458 19.8426 33.1528 19.0901 30.0702C18.926 29.3962 18.6312 28.7464 18.333 28.1149C18.081 27.5834 17.8301 27.604 17.5342 28.1241C17.4348 28.2975 17.3435 28.4789 17.2788 28.6672C17.043 29.3572 16.7632 30.038 16.6037 30.7464C15.8327 34.1781 15.0825 37.6132 14.352 41.0541C14.0653 42.4043 13.6006 43.5834 12.1002 43.999H10.9755V44.0001Z" fill="#0F1C62"/>
<path d="M17.9769 9.62228C15.3125 9.61883 13.1359 7.45121 13.1394 4.80368C13.144 2.15729 15.3253 -0.0034402 17.9908 4.1121e-06C20.6587 0.00344843 22.8306 2.16763 22.8272 4.81746C22.8237 7.46499 20.6425 9.62572 17.9769 9.62228Z" fill="#0F1C62"/>
</g>
<defs>
<clipPath id="clip0_872_902">
<rect width="36" height="44" fill="white"/>
</clipPath>
</defs>
</svg>
