<svg width="36" height="45" viewBox="0 0 36 45" fill="none" xmlns="http://www.w3.org/2000/svg">
<path d="M10.9745 44.4002C10.7445 44.3238 10.511 44.2589 10.2856 44.1697C9.17472 43.7341 8.58173 42.7203 8.79326 41.5467C9.64171 36.8175 10.541 32.0965 11.3455 27.3591C11.742 25.0281 12.0437 22.6751 12.2553 20.321C12.4078 18.6156 12.0541 18.2448 10.4289 17.7362C7.97024 16.967 5.50234 16.2267 3.05755 15.4145C2.3166 15.1689 1.57681 14.8144 0.946829 14.3568C-0.52929 13.2851 -0.213721 10.6772 1.43694 9.88591C1.93515 9.64725 2.43913 9.67274 2.95236 9.82799C6.61087 10.939 10.3318 11.7593 14.1175 12.2864C17.1136 12.7035 20.0948 12.5761 23.0724 12.0999C26.4327 11.5635 29.7363 10.7815 33.003 9.8361C34.0653 9.52908 34.9091 9.84768 35.4767 10.8046C36.1853 12.0014 36.443 13.7161 34.4803 14.7252C33.589 15.1828 32.6273 15.5095 31.6806 15.849C29.6219 16.5881 27.5435 17.2751 25.4906 18.0282C23.6908 18.6886 23.4851 18.9597 23.6608 20.9628C24.0422 25.2969 24.9346 29.5534 25.7287 33.8239C26.2015 36.3634 26.6824 38.9006 27.1436 41.4425C27.3921 42.813 26.6916 43.8986 25.3519 44.2786C25.2305 44.3134 25.1115 44.3574 24.9913 44.3979H23.8665C22.5257 44.0353 21.9408 43.0401 21.6807 41.775C21.5385 41.0822 21.4264 40.3836 21.268 39.6954C20.5525 36.5754 19.8416 33.4543 19.0891 30.3436C18.925 29.6635 18.6302 29.0078 18.332 28.3706C18.08 27.8342 17.8291 27.855 17.5332 28.3798C17.4338 28.5548 17.3425 28.7378 17.2778 28.9278C17.042 29.6241 16.7622 30.3111 16.6027 31.026C15.8317 34.4889 15.0815 37.9552 14.351 41.4274C14.0643 42.7899 13.5996 43.9797 12.0992 44.3991H10.9745V44.4002Z" fill="#FF715B"/>
<path d="M17.9762 9.7098C15.3118 9.70633 13.1352 7.51899 13.1387 4.84737C13.1433 2.17692 15.3245 -0.0034715 17.9901 4.1495e-06C20.658 0.0034798 22.83 2.18734 22.8265 4.86128C22.823 7.53289 20.6418 9.71328 17.9762 9.7098Z" fill="#FF715B"/>
</svg>
