<svg width="46" height="65" viewBox="0 0 46 65" fill="none" xmlns="http://www.w3.org/2000/svg">
<path d="M23 0C12.3848 0 0 6.4415 0 22.838C0 33.9638 17.6924 58.5585 23 65C27.718 58.5585 46 34.5497 46 22.838C46 6.4415 33.6152 0 23 0Z" fill="#0F1C62"/>
<path d="M17.9997 15.1077L19.6 26.6164C19.5935 26.9134 19.6477 27.2087 19.7593 27.4845C19.8709 27.7602 20.0376 28.0106 20.2494 28.2208C20.4612 28.4309 20.7137 28.5963 20.9916 28.707C21.2696 28.8177 21.5672 28.8715 21.8667 28.865H24.1333C24.4328 28.8715 24.7304 28.8177 25.0084 28.707C25.2863 28.5963 25.5388 28.4309 25.7506 28.2208C25.9624 28.0106 26.1291 27.7602 26.2407 27.4845C26.3523 27.2087 26.4065 26.9134 26.4 26.6164L28.0003 15.1077C28.0003 12 23 12 23 12C23 12 17.9929 12 17.9997 15.1077ZM13.9333 16.4973C10.5333 16.4973 10.5333 18.746 10.5333 18.746L12.8 27.7407H16.2C16.6663 27.7416 17.1147 27.5626 17.4505 27.2416C17.7863 26.9207 17.9833 26.4828 17.9997 26.0205L16.2 16.4973H13.9333ZM9.4 22.119C8.50978 22.1114 7.65056 22.443 6.9996 23.0455C6.4291 23.56 6.07265 24.2673 6 25.0288V29.9894H7.9992C8.31717 30.0198 8.63806 29.9846 8.94163 29.8859C9.24519 29.7872 9.52485 29.6272 9.76295 29.4159C10.0011 29.2046 10.1924 28.9467 10.325 28.6584C10.4576 28.37 10.5286 28.0576 10.5333 27.7407L9.4 22.119ZM32.0667 16.4973C35.4667 16.4973 35.4667 18.746 35.4667 18.746L33.2 27.7407H29.8C29.3337 27.7416 28.8853 27.5626 28.5495 27.2416C28.2137 26.9207 28.0167 26.4828 28.0003 26.0205L29.8 16.4973H32.0667ZM36.6 22.119C37.4902 22.1114 38.3494 22.443 39.0004 23.0455C39.5709 23.56 39.9273 24.2673 40 25.0288V29.9894H38.0008C37.6828 30.0198 37.3619 29.9846 37.0584 29.8859C36.7548 29.7872 36.4752 29.6272 36.237 29.4159C35.9989 29.2046 35.8076 28.9467 35.675 28.6584C35.5424 28.37 35.4714 28.0576 35.4667 27.7407L36.6 22.119Z" fill="white"/>
</svg>
