<svg width="46" height="65" viewBox="0 0 46 65" fill="none" xmlns="http://www.w3.org/2000/svg">
<path d="M23 0C12.3848 0 0 6.4415 0 22.838C0 33.9638 17.6924 58.5585 23 65C27.718 58.5585 46 34.5497 46 22.838C46 6.4415 33.6152 0 23 0Z" fill="#0F1C62"/>
<path d="M14.2262 9L12.0175 21.1C11.6942 22.871 15.9523 23.6982 15.8827 25.5L15.3306 39.8C15.2457 41.9985 17.5392 42 17.5392 42C17.5392 42 19.8327 41.9985 19.7479 39.8L19.1957 25.5C19.1264 23.7013 23.0243 22.9022 23.0609 21.1L20.8523 9H19.7479L20.3001 17.8L18.6436 18.9L18.0914 9H16.9871L16.4349 18.9L14.7784 17.8L15.3306 9H14.2262ZM33 9C31.3735 9 28.6617 10.4408 27.5775 12.6007C26.6739 14.2208 26.374 17.84 26.374 20V25.5C26.374 27.3 28.7834 27.7 29.687 27.7L28.5826 39.8C28.3828 41.991 30.7913 42 30.7913 42C30.7913 42 33 42 33 39.8V9Z" fill="white"/>
<path d="M14.2262 9L12.0175 21.1C11.6942 22.871 15.9523 23.6982 15.8827 25.5L15.3306 39.8C15.2457 41.9985 17.5392 42 17.5392 42C17.5392 42 19.8327 41.9985 19.7479 39.8L19.1957 25.5C19.1264 23.7013 23.0243 22.9022 23.0609 21.1L20.8523 9H19.7479L20.3001 17.8L18.6436 18.9L18.0914 9H16.9871L16.4349 18.9L14.7784 17.8L15.3306 9H14.2262ZM33 9C31.3735 9 28.6617 10.4408 27.5775 12.6007C26.6739 14.2208 26.374 17.84 26.374 20V25.5C26.374 27.3 28.7834 27.7 29.687 27.7L28.5826 39.8C28.3828 41.991 30.7913 42 30.7913 42C30.7913 42 33 42 33 39.8V9Z" fill="white"/>
<path d="M14.2262 9L12.0175 21.1C11.6942 22.871 15.9523 23.6982 15.8827 25.5L15.3306 39.8C15.2457 41.9985 17.5392 42 17.5392 42C17.5392 42 19.8327 41.9985 19.7479 39.8L19.1957 25.5C19.1264 23.7013 23.0243 22.9022 23.0609 21.1L20.8523 9H19.7479L20.3001 17.8L18.6436 18.9L18.0914 9H16.9871L16.4349 18.9L14.7784 17.8L15.3306 9H14.2262ZM33 9C31.3735 9 28.6617 10.4408 27.5775 12.6007C26.6739 14.2208 26.374 17.84 26.374 20V25.5C26.374 27.3 28.7834 27.7 29.687 27.7L28.5826 39.8C28.3828 41.991 30.7913 42 30.7913 42C30.7913 42 33 42 33 39.8V9Z" fill="white"/>
<path d="M14.2262 9L12.0175 21.1C11.6942 22.871 15.9523 23.6982 15.8827 25.5L15.3306 39.8C15.2457 41.9985 17.5392 42 17.5392 42C17.5392 42 19.8327 41.9985 19.7479 39.8L19.1957 25.5C19.1264 23.7013 23.0243 22.9022 23.0609 21.1L20.8523 9H19.7479L20.3001 17.8L18.6436 18.9L18.0914 9H16.9871L16.4349 18.9L14.7784 17.8L15.3306 9H14.2262ZM33 9C31.3735 9 28.6617 10.4408 27.5775 12.6007C26.6739 14.2208 26.374 17.84 26.374 20V25.5C26.374 27.3 28.7834 27.7 29.687 27.7L28.5826 39.8C28.3828 41.991 30.7913 42 30.7913 42C30.7913 42 33 42 33 39.8V9Z" fill="white"/>
</svg>
