<svg width="46" height="65" viewBox="0 0 46 65" fill="none" xmlns="http://www.w3.org/2000/svg">
<path d="M23 0C12.3848 0 0 6.4415 0 22.838C0 33.9638 17.6924 58.5585 23 65C27.718 58.5585 46 34.5497 46 22.838C46 6.4415 33.6152 0 23 0Z" fill="#0F1C62"/>
<path d="M21.7692 9C20.2923 9 19.3077 9.98462 19.3077 11.4615V21.3077H9.46154C7.98462 21.3077 7 22.2923 7 23.7692V26.2308C7 27.7077 7.98462 28.6923 9.46154 28.6923H19.3077V38.5385C19.3077 40.0154 20.2923 41 21.7692 41H24.2308C25.7077 41 26.6923 40.0154 26.6923 38.5385V28.6923H36.5385C38.0154 28.6923 39 27.7077 39 26.2308V23.7692C39 22.2923 38.0154 21.3077 36.5385 21.3077H26.6923V11.4615C26.6923 9.98462 25.7077 9 24.2308 9H21.7692Z" fill="white"/>
</svg>
